<svg width="133" height="24" viewBox="0 0 133 24" fill="none" xmlns="http://www.w3.org/2000/svg">
<path d="M4.53848 9.27797L11.8422 2.1673C12.0705 1.96218 12.1846 1.6887 12.1846 1.36963C12.1846 1.05056 12.0933 0.799862 11.865 0.571956C11.6368 0.34405 11.3857 0.230096 11.0662 0.230096C10.7467 0.207305 10.4728 0.321258 10.2445 0.549164L2.41584 8.18402V1.64311C2.41584 1.32405 2.30172 1.05056 2.07347 0.822652C1.84523 0.594746 1.57135 0.503584 1.27463 0.503584C0.955094 0.503584 0.681201 0.594746 0.45296 0.822652C0.224718 1.05056 0.133423 1.32405 0.133423 1.64311V17.2091C0.133423 17.5054 0.224718 17.7789 0.45296 18.0068C0.681201 18.2347 0.955094 18.3486 1.27463 18.3486C1.57135 18.3486 1.84523 18.2347 2.07347 18.0068C2.30172 17.7789 2.41584 17.5054 2.41584 17.2091V10.3719L10.2445 18.0068C10.4728 18.2347 10.7238 18.3486 11.0434 18.3486C11.3629 18.3486 11.6368 18.2347 11.865 17.984C12.0933 17.7789 12.1846 17.5054 12.1846 17.1863C12.1846 16.8672 12.0705 16.5937 11.8422 16.3886L4.53848 9.27797Z" fill="white"/>
<path d="M23.8423 18.3942C25.3487 18.3942 26.6725 17.9384 27.8365 16.9812C28.0876 16.7989 28.2017 16.5482 28.2474 16.2519C28.2702 15.9328 28.2017 15.6821 27.9963 15.4314C27.9086 15.3193 27.7983 15.2268 27.6725 15.16C27.5466 15.0933 27.4081 15.0537 27.2659 15.044C26.9692 15.0212 26.6953 15.0896 26.4671 15.2947C25.6911 15.91 24.8237 16.2063 23.8423 16.2063C22.7011 16.2063 21.7197 15.8189 20.9208 14.9984C20.0992 14.2007 19.7111 13.2207 19.7111 12.0812C19.7111 10.9417 20.0992 9.96169 20.9208 9.14123C21.7197 8.34355 22.7011 7.93332 23.8423 7.93332C24.7781 7.93332 25.6226 8.2296 26.3758 8.79937C27.1062 9.36913 27.5855 10.0984 27.8365 10.9873H23.8423C23.5456 10.9873 23.2717 11.1012 23.0663 11.3063C22.9643 11.4079 22.8835 11.5287 22.8286 11.6617C22.7738 11.7948 22.7459 11.9374 22.7467 12.0812C22.7467 12.3775 22.8609 12.651 23.0663 12.8561C23.168 12.958 23.289 13.0387 23.4222 13.0934C23.5554 13.1482 23.6982 13.176 23.8423 13.1752H29.0919C29.3886 13.1752 29.6396 13.0612 29.8451 12.8561C29.9543 12.7589 30.0415 12.6395 30.1005 12.5058C30.1596 12.3721 30.1892 12.2273 30.1874 12.0812C30.1874 10.3263 29.5483 8.84495 28.3158 7.61425C27.0833 6.38356 25.5998 5.74542 23.8423 5.74542C22.0848 5.74542 20.6013 6.38356 19.3688 7.61425C18.1363 8.84495 17.52 10.3263 17.52 12.0812C17.52 13.8361 18.1363 15.3175 19.3688 16.5482C20.6013 17.7789 22.0845 18.3942 23.8423 18.3942Z" fill="white"/>
<path d="M47.6574 6.83937C47.6574 6.42913 47.4064 6.13286 46.9499 5.95053C46.7673 5.88216 46.5847 5.83658 46.4021 5.83658C45.9913 5.83658 45.6946 6.06448 45.512 6.49751L41.8373 14.7705L37.6605 6.47472C37.4322 6.06448 37.1127 5.83658 36.7018 5.83658C36.5192 5.83658 36.3823 5.88216 36.2454 5.92774C36.0536 6.01155 35.8881 6.14539 35.766 6.31518C35.6451 6.4717 35.5808 6.66448 35.5835 6.86216C35.5835 7.04448 35.6063 7.20402 35.6976 7.34076L40.833 17.0724L38.5506 22.2002C38.4593 22.3826 38.4136 22.5649 38.4136 22.7472C38.4136 23.1574 38.6419 23.4537 39.0984 23.6361C39.3038 23.7272 39.4864 23.7728 39.6462 23.7728C40.057 23.7728 40.3537 23.5449 40.5363 23.0663L47.5205 7.38634C47.6118 7.18122 47.6574 6.9989 47.6574 6.83937Z" fill="white"/>
<path d="M63.5066 6.40634C62.6621 5.95053 61.7263 5.72262 60.6764 5.72262C59.9003 5.72262 59.1928 5.85937 58.5309 6.13286C57.8462 6.40634 57.2756 6.77099 56.7963 7.2496V1.66589C56.7963 1.32403 56.6821 1.05055 56.4767 0.822639C56.2485 0.617524 55.9746 0.503571 55.6322 0.503571C55.2899 0.503571 55.016 0.617524 54.7877 0.822639C54.5595 1.05055 54.4682 1.32403 54.4682 1.66589V17.1635C54.4682 17.5054 54.5595 17.7789 54.7877 18.0068C55.016 18.2347 55.2899 18.3258 55.6322 18.3258C55.9746 18.3258 56.2485 18.2347 56.4767 18.0068C56.6821 17.7789 56.7963 17.5054 56.7963 17.1635V10.7366C56.7963 10.1896 56.9332 9.71099 57.2299 9.25517C57.5266 8.82215 57.9375 8.48029 58.4624 8.2068C58.9874 7.95611 59.5808 7.81936 60.2199 7.81936C61.3154 7.81936 62.1827 8.13843 62.8446 8.77657C63.5065 9.41471 63.8489 10.3263 63.8489 11.557V17.1635C63.8489 17.5054 63.9402 17.7789 64.1684 18.0068C64.3967 18.2347 64.6706 18.3258 65.0129 18.3258C65.3325 18.3258 65.6064 18.2347 65.8346 18.0068C66.0629 17.7789 66.177 17.5054 66.177 17.1635V11.557C66.177 10.3263 65.9259 9.27796 65.4694 8.41192C64.9901 7.54588 64.3282 6.86216 63.5066 6.40634V6.40634Z" fill="white"/>
<path d="M80.4633 18.3942C82.2208 18.3942 83.7044 17.7789 84.9369 16.5482C86.1694 15.3175 86.8085 13.8361 86.8085 12.0812C86.8085 10.3263 86.1694 8.84495 84.9369 7.61425C83.7044 6.38356 82.2208 5.74542 80.4633 5.74542C78.7059 5.74542 77.2223 6.38356 75.9898 7.61425C74.7573 8.84495 74.1411 10.3263 74.1411 12.0812C74.1411 13.8361 74.7573 15.3175 75.9898 16.5482C77.2223 17.7789 78.7059 18.3942 80.4633 18.3942ZM80.4633 7.93332C81.6045 7.93332 82.586 8.34355 83.4077 9.14123C84.2065 9.96169 84.6173 10.9417 84.6173 12.0812C84.6173 13.2207 84.2065 14.2007 83.4077 14.9984C82.586 15.8189 81.6045 16.2063 80.4633 16.2063C79.3221 16.2063 78.3407 15.8189 77.5419 14.9984C76.7202 14.2007 76.3322 13.2207 76.3322 12.0812C76.3322 10.9417 76.7202 9.96169 77.5419 9.14123C78.3407 8.34355 79.3221 7.93332 80.4633 7.93332Z" fill="white"/>
<path d="M111.073 6.86217C110.114 5.90496 108.95 5.42636 107.581 5.42636C106.211 5.42636 105.047 5.90496 104.089 6.86217C103.975 6.97612 103.883 7.09007 103.769 7.20403C103.678 7.09007 103.564 6.97612 103.473 6.86217C102.491 5.90496 101.327 5.42636 99.9577 5.42636C98.5882 5.42636 97.4242 5.90496 96.4656 6.86217C95.507 7.84216 95.0277 9.00448 95.0277 10.3719V17.2091C95.0277 17.5282 95.119 17.7789 95.3472 18.0068C95.5755 18.2347 95.8493 18.3486 96.1689 18.3486C96.4656 18.3486 96.7395 18.2347 96.9677 18.0068C97.196 17.7789 97.3101 17.5282 97.3101 17.2091V10.3719C97.3101 9.64262 97.5612 9.00448 98.0861 8.4803C98.6111 7.95612 99.2273 7.70542 99.9577 7.70542C100.711 7.70542 101.327 7.95612 101.852 8.4803C102.377 9.00448 102.628 9.64262 102.628 10.3719V17.2091C102.628 17.5282 102.742 17.7789 102.97 18.0068C103.199 18.2347 103.45 18.3486 103.769 18.3486C104.089 18.3486 104.363 18.2347 104.568 18.0068C104.796 17.7789 104.911 17.5282 104.911 17.2091V10.3719C104.911 9.89332 105.025 9.4375 105.276 9.02727C105.497 8.62356 105.83 8.29147 106.234 8.07007C106.645 7.81937 107.102 7.70542 107.581 7.70542C108.311 7.70542 108.95 7.95612 109.453 8.4803C109.977 9.00448 110.251 9.64262 110.251 10.3719V17.2091C110.251 17.5282 110.343 17.7789 110.571 18.0068C110.799 18.2347 111.073 18.3486 111.393 18.3486C111.689 18.3486 111.963 18.2347 112.191 18.0068C112.42 17.7789 112.534 17.5282 112.534 17.2091V10.3719C112.534 9.00448 112.032 7.84216 111.073 6.86217V6.86217Z" fill="white"/>
<path d="M126.521 18.3942C128.028 18.3942 129.351 17.9384 130.515 16.9812C130.766 16.7989 130.881 16.5482 130.926 16.2519C130.949 15.9328 130.881 15.6821 130.675 15.4314C130.588 15.3193 130.477 15.2268 130.351 15.16C130.225 15.0933 130.087 15.0537 129.945 15.044C129.648 15.0212 129.374 15.0896 129.146 15.2947C128.37 15.91 127.503 16.2063 126.521 16.2063C125.38 16.2063 124.399 15.8189 123.6 14.9984C122.778 14.2007 122.39 13.2207 122.39 12.0812C122.39 10.9417 122.778 9.96169 123.6 9.14123C124.399 8.34355 125.38 7.93332 126.521 7.93332C127.457 7.93332 128.301 8.2296 129.055 8.79937C129.785 9.36913 130.264 10.0984 130.515 10.9873H126.521C126.224 10.9873 125.951 11.1012 125.745 11.3063C125.643 11.4079 125.562 11.5287 125.507 11.6617C125.453 11.7948 125.425 11.9374 125.426 12.0812C125.426 12.3775 125.54 12.651 125.745 12.8561C125.847 12.958 125.968 13.0387 126.101 13.0934C126.234 13.1482 126.377 13.176 126.521 13.1752H131.771C132.067 13.1752 132.318 13.0612 132.524 12.8561C132.633 12.7589 132.72 12.6395 132.779 12.5058C132.838 12.3721 132.868 12.2273 132.866 12.0812C132.866 10.3263 132.227 8.84495 130.995 7.61425C129.762 6.38356 128.279 5.74542 126.521 5.74542C124.764 5.74542 123.28 6.38356 122.048 7.61425C120.815 8.84495 120.199 10.3263 120.199 12.0812C120.199 13.8361 120.815 15.3175 122.048 16.5482C123.28 17.7789 124.764 18.3942 126.521 18.3942Z" fill="white"/>
</svg>
